<?xml version="1.0" encoding="UTF-8" standalone="no"?>
<!-- Created with Inkscape (http://www.inkscape.org/) -->

<svg
   xmlns:dc="http://purl.org/dc/elements/1.1/"
   xmlns:cc="http://creativecommons.org/ns#"
   xmlns:rdf="http://www.w3.org/1999/02/22-rdf-syntax-ns#"
   xmlns:svg="http://www.w3.org/2000/svg"
   xmlns="http://www.w3.org/2000/svg"
   xmlns:inkscape="http://www.inkscape.org/namespaces/inkscape"
   version="1.1"
   width="320"
   height="319.9975"
   id="svg2"
   xml:space="preserve"><metadata
     id="metadata8"><rdf:RDF><cc:Work
         rdf:about=""><dc:format>image/svg+xml</dc:format><dc:type
           rdf:resource="http://purl.org/dc/dcmitype/StillImage" /></cc:Work></rdf:RDF></metadata><defs
     id="defs6"><clipPath
       id="clipPath12"><path
         d="M 0,0 256,0 256,256 0,256 0,0 z"
         inkscape:connector-curvature="0"
         id="path14" /></clipPath><clipPath
       id="clipPath20"><path
         d="M 0,256 256,256 256,0 0,0 0,256 z"
         inkscape:connector-curvature="0"
         id="path22" /></clipPath></defs><g
     transform="matrix(1.25,0,0,-1.25,0,319.9975)"
     clip-path="url(#clipPath12)"
     id="g10"><g
       id="g16"><g
         clip-path="url(#clipPath20)"
         id="g18"><g
           transform="translate(39.9819,36.4941)"
           id="g24"><path
             d="M 0,0 C -0.941,0.003 -1.663,0.369 -2.186,0.688 -4.513,2.111 -4.14,4.19 -3.97,4.795 c 0.111,0.395 0.287,0.757 0.516,1.078 0.273,24.923 0.032,50.288 -0.201,74.841 -0.306,32.141 -0.621,65.376 0.175,98.874 0.022,0.931 0.414,1.816 1.09,2.457 0.65,0.618 1.514,0.961 2.409,0.961 0.033,0 0.068,-0.002 0.102,-0.002 25.552,-0.741 52.143,-1.101 81.286,-1.101 28.912,0 59.837,0.36 94.536,1.101 l 0.077,0 c 1.893,0 3.449,-1.511 3.497,-3.414 0.681,-27.875 0.296,-56.876 -0.079,-84.924 -0.399,-30.062 -0.813,-61.145 0.079,-91.056 0.027,-0.958 -0.337,-1.886 -1.012,-2.567 -0.657,-0.664 -1.554,-1.036 -2.489,-1.036 l -0.069,0 C 154.33,0.441 131.036,0.654 104.736,0.654 76.486,0.654 48.032,0.413 20.515,0.178 13.737,0.119 6.976,0.063 0.231,0.009 0.154,0.003 0.077,0 0,0"
             inkscape:connector-curvature="0"
             id="path26"
             style="fill:#ffffff;fill-opacity:1;fill-rule:nonzero;stroke:none" /></g><g
           transform="translate(216.0029,223)"
           id="g28"><path
             d="m 0,0 c -0.051,0 -0.102,0 -0.152,-0.001 -34.686,-0.742 -65.587,-1.103 -94.471,-1.103 -29.109,0 -55.663,0.36 -81.177,1.101 -0.068,0.002 -0.136,0.003 -0.203,0.003 -1.79,0 -3.515,-0.686 -4.817,-1.921 -1.352,-1.283 -2.137,-3.05 -2.181,-4.913 -0.796,-33.545 -0.481,-66.797 -0.176,-98.954 0.23,-24.256 0.468,-49.302 0.211,-73.916 -0.156,-0.335 -0.287,-0.686 -0.39,-1.05 -0.668,-2.358 -0.204,-5.88 3.304,-8.039 0.489,-0.301 1.969,-1.212 4.031,-1.212 0.019,0 0.056,0.005 0.074,0.005 6.764,0.055 13.547,0.112 20.346,0.17 27.543,0.235 56.023,0.478 84.289,0.478 26.287,0 49.565,-0.211 71.168,-0.647 0.047,-0.001 0.094,-0.001 0.141,-0.001 1.866,0 3.657,0.745 4.974,2.074 1.348,1.363 2.08,3.218 2.023,5.135 -0.89,29.831 -0.476,60.873 -0.076,90.893 0.374,28.083 0.761,57.122 0.077,85.069 C 6.901,-3.023 3.788,0 0,0 m -0.003,-7 c 1.41,-57.625 -1.729,-118.043 0,-176 -23.811,0.479 -47.603,0.648 -71.309,0.648 -35.194,0 -70.187,-0.372 -104.691,-0.648 -0.004,-0.004 -0.01,-0.005 -0.018,-0.005 -0.06,0 -0.221,0.086 -0.361,0.173 -0.14,0.086 -0.26,0.172 -0.236,0.172 0.024,0 0.189,-0.085 0.615,-0.34 0.711,58.05 -1.425,115.979 0,176 26.757,-0.777 53.971,-1.104 81.38,-1.104 31.417,0 63.091,0.43 94.62,1.104"
             inkscape:connector-curvature="0"
             id="path30"
             style="fill:#16a8e7;fill-opacity:1;fill-rule:nonzero;stroke:none" /></g><g
           transform="translate(39.5562,214.7886)"
           id="g32"><path
             d="M 0,0 C 0.063,-0.063 1.231,1.342 1.287,1.287 1.481,1.092 0.634,-4.035 1.066,-4.467 1.651,-5.051 6.081,1.682 6.647,1.115 8.022,-0.259 -1.149,-9.373 0.198,-10.72 1.953,-12.475 10.005,2.137 11.53,0.612 12.18,-0.038 -1.012,-14.417 -0.021,-15.408 1.598,-17.026 14.493,3.783 16.832,1.445 17.956,0.321 0.053,-16.986 0.793,-17.726 2.82,-19.753 18.543,2.153 19.607,1.089 21.805,-1.108 -0.818,-22.083 0.102,-23.003 2.795,-25.696 21.951,2.204 23.63,0.526 25.085,-0.929 -3.5,-22.099 0.398,-25.997 1.971,-27.569 23.983,4.273 27.325,0.931 29.231,-0.975 -2.135,-27.632 0.313,-30.08 4.938,-34.705 28.797,4.568 31.879,1.486 34.612,-1.247 -2.733,-30.419 0.576,-33.729 3.649,-36.802 31.193,6.574 36.036,1.731 41.557,-3.789 -3.32,-34.498 -0.195,-37.622 3.816,-41.634 33.097,6.911 38.717,1.291 44.475,-4.467 -1.225,-38.183 0.855,-40.263 3.427,-42.834 39.356,4.842 42.658,1.541 45.743,-1.544 -6.898,-38.628 -0.119,-45.408 2.261,-47.787 44.472,4.152 46.957,1.667 50.638,-2.014 -5.896,-43.842 0.142,-49.88 8.086,-57.824 47.87,4.671 51.281,1.259 59.268,-6.727 -5.276,-48.601 0.167,-54.043 7.724,-61.601 52.251,2.937 54.699,0.489 59.876,-4.688 -3.745,-54.467 0.375,-58.588 6.884,-65.097 55.144,6.63 60.369,1.405 66.861,-5.086 -2.794,-59.634 0.303,-62.732 4.179,-66.607 54.909,9.259 63.602,0.566 73.265,-9.097 -8.071,-57.399 0.291,-65.76 8.785,-74.255 58.209,9.563 66.912,0.861 72.52,-4.748 -6.731,-63.533 0.047,-70.311 2.896,-73.16 68.894,4.919 72.086,1.728 78.707,-4.894 -9.458,-66.102 -0.123,-75.437 3.09,-78.649 66.446,10.825 76.292,0.979 80.771,-3.5 -9.861,-66.756 0.923,-77.54 8.123,-84.74 72.196,7.479 79.069,0.606 83.583,-3.908 -8.546,-73.818 0.576,-82.94 11.6,-93.964 71.65,13.505 84.336,0.82 94.965,-9.809 -10.949,-75.048 1.009,-87.006 10.055,-96.051 82.583,8.731 89.665,1.649 94.741,-3.427 -12.664,-78.643 0.996,-92.302 7.068,-98.375 87.262,8.299 94.429,1.131 98.645,-3.084 -8.121,-86.542 0.832,-95.494 5.538,-100.2 88.813,8.718 96.928,0.604 103.602,-6.071 -11.626,-89.179 0.528,-101.333 11.073,-111.878 87.651,16.097 102.804,0.943 116.584,-12.836 -8.17,-97.484 0.066,-105.72 13.955,-119.609 101.561,6.166 106.756,0.97 112.107,-4.38 -7.849,-101.569 0.896,-110.313 18.226,-127.643 95.933,17.016 112.079,0.87 120.207,-7.258 -9.632,-102.783 0.96,-113.375 12.934,-125.347 109.613,7.525 115.736,1.401 125.484,-8.347 -14.017,-104.895 0.521,-119.433 17.157,-136.069 108.832,12.425 120.606,0.65 133.828,-12.572 -18.801,-105.366 -0.153,-124.013 17.766,-141.932 109.645,17.765 125.634,1.775 141.855,-14.445 -15.895,-113.048 -0.072,-128.871 19.896,-148.838 109.28,20.942 129.51,0.712 148.218,-17.996 -8.919,-121.951 0.456,-131.326 10.303,-141.173 111.795,21.684 132.63,0.849 147.474,-13.995 -11.845,-122.981 0.243,-135.069 7.25,-142.076 121.573,17.105 136.995,1.683 149.45,-10.772 -8.476,-129.385 0.348,-138.208 21.718,-159.579 122.223,19.688 140.234,1.677 160.137,-18.226 -13.411,-130.257 -0.073,-143.595 22.426,-166.094 129.53,15.747 144.4,0.877 156.038,-10.76 -9.714,-135.34 0.651,-145.706 20.797,-165.851 141.592,8.324 148.136,1.78 158.361,-8.445 -19.93,-128.915 0.445,-149.289 22.333,-171.177 128.369,24.464 151.283,1.55 172.444,-19.611 -11.004,-141.292 0.764,-153.06 23.505,-175.802 133.784,23.498 155.552,1.729 175.804,-18.524 -15.511,-143.011 -0.11,-158.413 7.336,-165.859 140.184,20.426 159.457,1.154 179.274,-18.663 -10.48,-149.93 0.926,-161.336 20.845,-181.256 137.443,26.36 163.033,0.77 183.788,-19.986 -6.654,-159.572 0.252,-166.479 13.035,-179.26 153.338,17.141 168.606,1.874 189.286,-18.806 -23.055,-145.266 1.017,-169.337 23.209,-191.53 158.514,15.659 172.263,1.909 192.537,-18.364 -17.431,-155.01 0.758,-173.2 19.558,-192 158.43,18.532 175.46,1.502 203.208,-26.245 -9.786,-163.98 1.723,-175.489 16.449,-190.215 148.769,26.657 176.319,-0.893 198.832,-23.406 -16.624,-151.244 7.414,-175.282 25.33,-193.197 157.191,13.283 176.585,-6.111 197.856,-27.381 -5.776,-156.352 12.751,-174.879 34.402,-196.531 152.119,12.833 176.292,-11.339 191.254,-26.301 3.955,-160.393 18.211,-174.649 31.438,-187.875 155.219,5.868 176.974,-15.887 184.299,-23.212 11.338,-163.846 21.814,-174.323 40.309,-192.818 167.749,-11.794 176.045,-20.091 187.072,-31.118 18.235,-166.484 26.728,-174.977 37.895,-186.143 160.373,-10.627 175.725,-25.979 191.529,-41.783 21.34,-165.138 31.676,-175.475 38.313,-182.111 169.748,-25.016 175.942,-31.21 184.039,-39.308 25.378,-163.091 37.089,-174.802 47.061,-184.774 166.671,-26.15 176.207,-35.685 193.538,-53.016 28.055,-160.41 41.761,-174.117 53.328,-185.683 155.672,-19.933 175.809,-40.068 189.83,-54.089 29.882,-157.808 46.785,-174.71 63.466,-191.392 162.302,-30.207 176.795,-44.7 184.936,-52.84 37.686,-160.176 51.844,-174.334 70.859,-193.35 158.039,-31.782 176.217,-49.961 186.752,-60.496 36.305,-155.224 55.819,-174.738 74.453,-193.372 170.487,-47.078 176.983,-53.574 195.678,-72.27 46.758,-163.026 58.677,-174.944 c 9.699,-9.699 100.691,133.725 117.208,117.208 8.027,-8.027 -124.859,-106.895 -114.31,-117.445 12.835,-12.834 109.707,120.904 115.305,115.306 12.323,-12.323 -126.887,-99.32 -111.151,-115.056 4.807,-4.807 98.074,123.274 110.675,110.674 5.371,-5.372 -121.287,-95.083 -105.527,-110.844 9.414,-9.413 92.39,119.629 106.01,106.01 7.778,-7.778 -113.8,-91.765 -100.306,-105.259 6.062,-6.062 91.274,107.538 99.405,99.406 12.262,-12.261 -104.362,-91.123 -95.883,-99.601 8.914,-8.915 82.718,111.218 96.968,96.968 13.421,-13.421 -102.37,-85.184 -91.048,-96.506 4.688,-4.689 77.429,104.197 90.813,90.812 11.752,-11.752 -90.155,-86.227 -85.468,-90.913 5.251,-5.251 73.403,97.035 85.219,85.22 3.473,-3.474 -94.164,-74.174 -82.513,-85.825 10.739,-10.74 70.213,95.261 82.736,82.737 5.188,-5.187 -91.761,-71.046 -79.928,-82.879 9.598,-9.597 72.392,87.785 80.088,80.088 3.322,-3.323 -79.499,-77.163 -76.231,-80.431 8.282,-8.281 66.184,84.147 75.166,75.166 8.675,-8.675 -76.226,-69.833 -71.026,-75.034 6.226,-6.226 60.853,82.831 71.842,71.842 6.223,-6.223 -74.112,-63.689 -66.451,-71.35 5.131,-5.131 60.83,70.308 65.568,65.568 6.334,-6.333 -67.502,-60.932 -62.119,-66.315 9.335,-9.335 54.963,70.716 62.84,62.839 6.22,-6.22 -63.976,-55.759 -57.749,-61.987 3.106,-3.106 48.241,66.584 57.412,57.413 7.545,-7.545 -60.338,-49.488 -52.719,-57.106 2.394,-2.393 46.408,58.803 52.606,52.605 6.66,-6.66 -55.09,-46.814 -49.449,-52.455 6.051,-6.051 44.116,54.751 49.433,49.433 4.252,-4.252 -54.202,-42.342 -46.547,-49.998 5.803,-5.802 43.2,51.82 47.51,47.51 5.224,-5.225 -45.334,-44.366 -42.2,-47.499 4.977,-4.978 35.345,48.141 41.743,41.742 5.243,-5.244 -41.747,-37.663 -37.304,-42.106 2.446,-2.446 34.096,39.309 36.703,36.702 5.09,-5.09 -35.313,-33.488 -31.796,-37.004 3.174,-3.175 29.846,34.414 32.131,32.131 4.267,-4.269 -31.061,-28.651 -27.913,-31.799 2.07,-2.069 24.841,30.231 27.536,27.536 1.216,-1.217 -26.217,-25.263 -24.088,-27.392 3.195,-3.195 22.782,26.73 24.756,24.756 3.043,-3.043 -20.992,-23.581 -19.776,-24.796 3.054,-3.053 16.854,21.462 19.157,19.158 1.824,-1.824 -16.716,-17.272 -15.101,-18.887 1.694,-1.694 14.346,17.719 16.032,16.032 1.993,-1.993 -13.325,-14.74 -11.323,-16.742 1.451,-1.451 8.998,12.137 10.566,10.567 1.005,-1.005 -7.847,-9.68 -7.2,-10.328 0.662,-0.662 6.589,7.755 7.172,7.172 0.256,-0.256 -2.74,-6.285 -2.168,-6.857 0.236,-0.237 2.043,2.716 2.38,2.38"
             inkscape:connector-curvature="0"
             id="path34"
             style="fill:none;stroke:#16a8e7;stroke-width:2;stroke-linecap:round;stroke-linejoin:round;stroke-miterlimit:4;stroke-opacity:1;stroke-dasharray:none" /></g><g
           transform="translate(154,107)"
           id="g36"><path
             d="m 0,0 c -10.196,0.36 -21.89,-1.548 -31,1 -2.411,3.703 -2.193,8.862 -2,14 12.769,-2.434 25.225,-0.316 37,-1 7.733,0.512 15.512,7.926 17,17 2.95,10.99 -5.006,21.378 -16,23 -12.379,2.321 -25.464,0.186 -37,1 2.657,11.526 -4.05,25.702 -17,27 -9.073,1.486 -16.694,-4.209 -22,-10 -0.507,-1.568 -1.571,-3.934 -2,-6 0.612,-22.801 -2.34,-48.904 2,-73 2.333,-10.866 9.205,-19.335 18,-26 17.833,-11.01 37.278,-6.54 57,-7 5.972,1.169 10.717,4.99 15,10 4.248,7.896 2.698,18.049 -4,24 -4.461,3.921 -8.785,4.382 -15,6 -0.47,-0.109 0.568,-0.365 0,0"
             inkscape:connector-curvature="0"
             id="path38"
             style="fill:#ffffff;fill-opacity:1;fill-rule:nonzero;stroke:none" /></g><g
           transform="translate(154,107)"
           id="g40"><path
             d="m 0,0 c -10.196,0.36 -21.89,-1.548 -31,1 -2.411,3.703 -2.193,8.862 -2,14 12.769,-2.434 25.225,-0.316 37,-1 7.733,0.512 15.512,7.926 17,17 2.95,10.99 -5.006,21.378 -16,23 -12.379,2.321 -25.464,0.186 -37,1 2.657,11.526 -4.05,25.702 -17,27 -9.073,1.486 -16.694,-4.209 -22,-10 -0.507,-1.568 -1.571,-3.934 -2,-6 0.612,-22.801 -2.34,-48.904 2,-73 2.333,-10.866 9.205,-19.335 18,-26 17.833,-11.01 37.278,-6.54 57,-7 5.972,1.169 10.717,4.99 15,10 4.248,7.896 2.698,18.049 -4,24 -4.461,3.921 -8.785,4.382 -15,6 -0.47,-0.109 0.568,-0.365 0,0 z"
             inkscape:connector-curvature="0"
             id="path42"
             style="fill:none;stroke:#16a8e7;stroke-width:7;stroke-linecap:butt;stroke-linejoin:miter;stroke-miterlimit:4;stroke-opacity:1;stroke-dasharray:none" /></g></g></g></g></svg>